<svg width="1072" height="969" viewBox="0 0 1072 969" fill="none" xmlns="http://www.w3.org/2000/svg">
<g clip-path="url(#clip0_164_53)">
<path d="M945.92 968.7C875.44 968.7 827.22 912.22 821.31 857.61C794.13 606.36 663.89 377.66 461.66 226.1C442.47 211.72 410.27 179.5 410.27 125.36C410.27 57.41 467.68 0 535.63 0C603.58 0 654.34 56.48 660.25 111.09C687.42 362.33 817.66 591.03 1019.88 742.59C1039.07 756.98 1071.27 789.2 1071.27 843.33C1071.27 911.28 1013.86 968.69 945.91 968.69L945.92 968.7Z" fill="white"/>
<path d="M125.36 968.7C57.4 968.7 0 911.29 0 843.34C0 789.21 32.2 756.98 51.4 742.61C253.62 591.04 383.85 362.34 411.03 111.09C416.94 56.48 465.16 0 535.64 0C606.12 0 661.01 57.41 661.01 125.36C661.01 179.5 628.81 211.72 609.61 226.1C407.39 377.67 277.15 606.36 249.98 857.61C244.07 912.22 195.85 968.7 125.37 968.7H125.36Z" fill="white"/>
<path d="M945.92 968.7C913.84 968.7 885.42 957.46 861.44 935.32C740.83 823.87 592.37 747.08 431.72 713.03C416.87 709.89 394.91 693.16 394.91 667.24C394.91 641.32 416.75 620.5 441.66 620.5C449.14 620.5 455.14 621.83 461.11 624.81C587.88 688.12 727.39 720.88 868.48 720.88C891.23 720.88 913.99 720.03 936.77 718.32C939.82 718.1 942.82 717.98 945.91 717.98C1013.86 717.98 1071.27 775.39 1071.27 843.34C1071.27 911.29 1013.86 968.7 945.91 968.7H945.92Z" fill="white"/>
</g>
<defs>
<clipPath id="clip0_164_53">
<rect width="1071.28" height="968.7" fill="white"/>
</clipPath>
</defs>
</svg>
