<svg width="3127" height="1813" viewBox="0 0 3127 1813" fill="none" xmlns="http://www.w3.org/2000/svg">
<g filter="url(#filter0_f_11_169)">
<path d="M2987.93 1069.07L132.257 811.68L276.434 640.483L2984.01 1041.04L2987.93 1069.07Z" fill="white" fill-opacity="0.2"/>
</g>
<g filter="url(#filter1_f_11_169)">
<path d="M3006.19 1131.68L149.832 767.011L295.083 763.369L3002.42 1127.87L3006.19 1131.68Z" fill="#FDC700"/>
</g>
<g filter="url(#filter2_f_11_169)">
<path d="M2956.36 1097.9L100 733.231L245.251 729.589L2952.59 1094.09L2956.36 1097.9Z" fill="#39B54A"/>
</g>
<g filter="url(#filter3_f_11_169)">
<path d="M3026.8 1071.04L170.435 706.37L315.685 702.729L3023.03 1067.23L3026.8 1071.04Z" fill="#0051FF"/>
</g>
<g filter="url(#filter4_f_11_169)">
<path d="M2992.7 1160.3L136.337 795.628L281.588 791.986L2988.93 1156.49L2992.7 1160.3Z" fill="#D62828"/>
</g>
<g filter="url(#filter5_f_11_169)">
<path d="M2987.93 1069.07L132.257 811.68L276.434 640.483L2984.01 1041.04L2987.93 1069.07Z" fill="white" fill-opacity="0.2"/>
</g>
<g filter="url(#filter6_f_11_169)">
<path d="M3006.19 1131.68L149.832 767.011L295.083 763.369L3002.42 1127.87L3006.19 1131.68Z" fill="#FDC700"/>
</g>
<g filter="url(#filter7_f_11_169)">
<path d="M2956.36 1097.9L100 733.231L245.251 729.589L2952.59 1094.09L2956.36 1097.9Z" fill="#39B54A"/>
</g>
<g filter="url(#filter8_f_11_169)">
<path d="M3026.8 1071.04L170.435 706.37L315.685 702.729L3023.03 1067.23L3026.8 1071.04Z" fill="#0051FF"/>
</g>
<g filter="url(#filter9_f_11_169)">
<path d="M2992.7 1160.3L136.337 795.628L281.588 791.986L2988.93 1156.49L2992.7 1160.3Z" fill="#D62828"/>
</g>
<defs>
<filter id="filter0_f_11_169" x="32.2568" y="540.483" width="3055.67" height="628.586" filterUnits="userSpaceOnUse" color-interpolation-filters="sRGB">
<feFlood flood-opacity="0" result="BackgroundImageFix"/>
<feBlend mode="normal" in="SourceGraphic" in2="BackgroundImageFix" result="shape"/>
<feGaussianBlur stdDeviation="25" result="effect1_foregroundBlur_11_169"/>
</filter>
<filter id="filter1_f_11_169" x="49.8323" y="663.369" width="3056.36" height="568.316" filterUnits="userSpaceOnUse" color-interpolation-filters="sRGB">
<feFlood flood-opacity="0" result="BackgroundImageFix"/>
<feBlend mode="normal" in="SourceGraphic" in2="BackgroundImageFix" result="shape"/>
<feGaussianBlur stdDeviation="25" result="effect1_foregroundBlur_11_169"/>
</filter>
<filter id="filter2_f_11_169" x="0" y="629.589" width="3056.36" height="568.316" filterUnits="userSpaceOnUse" color-interpolation-filters="sRGB">
<feFlood flood-opacity="0" result="BackgroundImageFix"/>
<feBlend mode="normal" in="SourceGraphic" in2="BackgroundImageFix" result="shape"/>
<feGaussianBlur stdDeviation="25" result="effect1_foregroundBlur_11_169"/>
</filter>
<filter id="filter3_f_11_169" x="70.4346" y="602.729" width="3056.36" height="568.316" filterUnits="userSpaceOnUse" color-interpolation-filters="sRGB">
<feFlood flood-opacity="0" result="BackgroundImageFix"/>
<feBlend mode="normal" in="SourceGraphic" in2="BackgroundImageFix" result="shape"/>
<feGaussianBlur stdDeviation="25" result="effect1_foregroundBlur_11_169"/>
</filter>
<filter id="filter4_f_11_169" x="36.3369" y="691.986" width="3056.36" height="568.316" filterUnits="userSpaceOnUse" color-interpolation-filters="sRGB">
<feFlood flood-opacity="0" result="BackgroundImageFix"/>
<feBlend mode="normal" in="SourceGraphic" in2="BackgroundImageFix" result="shape"/>
<feGaussianBlur stdDeviation="25" result="effect1_foregroundBlur_11_169"/>
</filter>
<filter id="filter5_f_11_169" x="32.2568" y="540.483" width="3055.67" height="628.586" filterUnits="userSpaceOnUse" color-interpolation-filters="sRGB">
<feFlood flood-opacity="0" result="BackgroundImageFix"/>
<feBlend mode="normal" in="SourceGraphic" in2="BackgroundImageFix" result="shape"/>
<feGaussianBlur stdDeviation="25" result="effect1_foregroundBlur_11_169"/>
</filter>
<filter id="filter6_f_11_169" x="49.8323" y="663.369" width="3056.36" height="568.316" filterUnits="userSpaceOnUse" color-interpolation-filters="sRGB">
<feFlood flood-opacity="0" result="BackgroundImageFix"/>
<feBlend mode="normal" in="SourceGraphic" in2="BackgroundImageFix" result="shape"/>
<feGaussianBlur stdDeviation="25" result="effect1_foregroundBlur_11_169"/>
</filter>
<filter id="filter7_f_11_169" x="0" y="629.589" width="3056.36" height="568.316" filterUnits="userSpaceOnUse" color-interpolation-filters="sRGB">
<feFlood flood-opacity="0" result="BackgroundImageFix"/>
<feBlend mode="normal" in="SourceGraphic" in2="BackgroundImageFix" result="shape"/>
<feGaussianBlur stdDeviation="25" result="effect1_foregroundBlur_11_169"/>
</filter>
<filter id="filter8_f_11_169" x="70.4346" y="602.729" width="3056.36" height="568.316" filterUnits="userSpaceOnUse" color-interpolation-filters="sRGB">
<feFlood flood-opacity="0" result="BackgroundImageFix"/>
<feBlend mode="normal" in="SourceGraphic" in2="BackgroundImageFix" result="shape"/>
<feGaussianBlur stdDeviation="25" result="effect1_foregroundBlur_11_169"/>
</filter>
<filter id="filter9_f_11_169" x="36.3369" y="691.986" width="3056.36" height="568.316" filterUnits="userSpaceOnUse" color-interpolation-filters="sRGB">
<feFlood flood-opacity="0" result="BackgroundImageFix"/>
<feBlend mode="normal" in="SourceGraphic" in2="BackgroundImageFix" result="shape"/>
<feGaussianBlur stdDeviation="25" result="effect1_foregroundBlur_11_169"/>
</filter>
</defs>
</svg>
