<?xml version="1.0" encoding="UTF-8"?><svg id="a" xmlns="http://www.w3.org/2000/svg" viewBox="0 0 1071.28 968.7"><path d="M945.92,968.7c-70.48,0-118.7-56.48-124.61-111.09-27.18-251.25-157.42-479.95-359.65-631.51-19.19-14.38-51.39-46.6-51.39-100.74,0-67.95,57.41-125.36,125.36-125.36s118.71,56.48,124.62,111.09c27.17,251.24,157.41,479.94,359.63,631.5,19.19,14.39,51.39,46.61,51.39,100.74,0,67.95-57.41,125.36-125.36,125.36Z"/><path d="M125.36,968.7c-67.96,0-125.36-57.41-125.36-125.36,0-54.13,32.2-86.36,51.4-100.73C253.62,591.04,383.85,362.34,411.03,111.09,416.94,56.48,465.16,0,535.64,0s125.37,57.41,125.37,125.36c0,54.14-32.2,86.36-51.4,100.74-202.22,151.57-332.46,380.26-359.63,631.51-5.91,54.61-54.13,111.09-124.61,111.09Z"/><path d="M945.92,968.7c-32.08,0-60.5-11.24-84.48-33.38-120.61-111.45-269.07-188.24-429.72-222.29-14.85-3.14-36.81-19.87-36.81-45.79s21.84-46.74,46.75-46.74c7.48,0,13.48,1.33,19.45,4.31,126.77,63.31,266.28,96.07,407.37,96.07,22.75,0,45.51-.85,68.29-2.56,3.05-.22,6.05-.34,9.14-.34,67.95,0,125.36,57.41,125.36,125.36s-57.41,125.36-125.36,125.36Z"/></svg>